<svg width="20" height="21" viewBox="0 0 20 21" fill="none" xmlns="http://www.w3.org/2000/svg">
<path d="M17.5 16.5794H4.16667V3.24605C4.16667 3.02504 4.07887 2.81308 3.92259 2.6568C3.76631 2.50052 3.55435 2.41272 3.33333 2.41272C3.11232 2.41272 2.90036 2.50052 2.74408 2.6568C2.5878 2.81308 2.5 3.02504 2.5 3.24605V17.4127C2.5 17.6337 2.5878 17.8457 2.74408 18.002C2.90036 18.1583 3.11232 18.2461 3.33333 18.2461H17.5C17.721 18.2461 17.933 18.1583 18.0893 18.002C18.2455 17.8457 18.3333 17.6337 18.3333 17.4127C18.3333 17.1917 18.2455 16.9797 18.0893 16.8235C17.933 16.6672 17.721 16.5794 17.5 16.5794Z" fill="#464255"/>
<path d="M5.83301 9.9128V14.0795C5.83301 14.3005 5.92081 14.5124 6.07709 14.6687C6.23337 14.825 6.44533 14.9128 6.66634 14.9128C6.88736 14.9128 7.09932 14.825 7.2556 14.6687C7.41188 14.5124 7.49967 14.3005 7.49967 14.0795V9.9128C7.49967 9.69179 7.41188 9.47983 7.2556 9.32355C7.09932 9.16727 6.88736 9.07947 6.66634 9.07947C6.44533 9.07947 6.23337 9.16727 6.07709 9.32355C5.92081 9.47983 5.83301 9.69179 5.83301 9.9128Z" fill="#464255"/>
<path d="M9.16699 5.74605V14.0794C9.16699 14.3004 9.25479 14.5124 9.41107 14.6686C9.56735 14.8249 9.77931 14.9127 10.0003 14.9127C10.2213 14.9127 10.4333 14.8249 10.5896 14.6686C10.7459 14.5124 10.8337 14.3004 10.8337 14.0794V5.74605C10.8337 5.52504 10.7459 5.31308 10.5896 5.1568C10.4333 5.00052 10.2213 4.91272 10.0003 4.91272C9.77931 4.91272 9.56735 5.00052 9.41107 5.1568C9.25479 5.31308 9.16699 5.52504 9.16699 5.74605Z" fill="#464255"/>
<path d="M12.5 7.4128V14.0795C12.5 14.3005 12.5878 14.5124 12.7441 14.6687C12.9004 14.825 13.1123 14.9128 13.3333 14.9128C13.5543 14.9128 13.7663 14.825 13.9226 14.6687C14.0789 14.5124 14.1667 14.3005 14.1667 14.0795V7.4128C14.1667 7.19179 14.0789 6.97983 13.9226 6.82355C13.7663 6.66727 13.5543 6.57947 13.3333 6.57947C13.1123 6.57947 12.9004 6.66727 12.7441 6.82355C12.5878 6.97983 12.5 7.19179 12.5 7.4128Z" fill="#464255"/>
<path d="M15.833 3.24605V14.0794C15.833 14.3004 15.9208 14.5124 16.0771 14.6686C16.2334 14.8249 16.4453 14.9127 16.6663 14.9127C16.8874 14.9127 17.0993 14.8249 17.2556 14.6686C17.4119 14.5124 17.4997 14.3004 17.4997 14.0794V3.24605C17.4997 3.02504 17.4119 2.81308 17.2556 2.6568C17.0993 2.50052 16.8874 2.41272 16.6663 2.41272C16.4453 2.41272 16.2334 2.50052 16.0771 2.6568C15.9208 2.81308 15.833 3.02504 15.833 3.24605Z" fill="#464255"/>
</svg>
