<svg width="20" height="21" viewBox="0 0 20 21" fill="none" xmlns="http://www.w3.org/2000/svg">
<path d="M10.0003 10.7459C10.4606 10.7459 10.8337 10.3728 10.8337 9.91256C10.8337 9.45232 10.4606 9.07922 10.0003 9.07922C9.54009 9.07922 9.16699 9.45232 9.16699 9.91256C9.16699 10.3728 9.54009 10.7459 10.0003 10.7459Z" fill="#464255"/>
<path d="M6.66634 10.7459C7.12658 10.7459 7.49967 10.3728 7.49967 9.91256C7.49967 9.45232 7.12658 9.07922 6.66634 9.07922C6.2061 9.07922 5.83301 9.45232 5.83301 9.91256C5.83301 10.3728 6.2061 10.7459 6.66634 10.7459Z" fill="#464255"/>
<path d="M13.3333 10.7459C13.7936 10.7459 14.1667 10.3728 14.1667 9.91256C14.1667 9.45232 13.7936 9.07922 13.3333 9.07922C12.8731 9.07922 12.5 9.45232 12.5 9.91256C12.5 10.3728 12.8731 10.7459 13.3333 10.7459Z" fill="#464255"/>
<path d="M2.54205 18.9711C2.71647 19.0431 2.90338 19.0799 3.09205 19.0794C3.27813 19.0804 3.4625 19.044 3.63426 18.9724C3.80602 18.9008 3.96169 18.7955 4.09205 18.6628L6.17539 16.5794H14.1671C15.2721 16.5794 16.3319 16.1404 17.1133 15.359C17.8947 14.5776 18.3337 13.5178 18.3337 12.4128V7.41276C18.3337 6.30769 17.8947 5.24788 17.1133 4.46648C16.3319 3.68508 15.2721 3.24609 14.1671 3.24609H5.83372C4.72865 3.24609 3.66884 3.68508 2.88744 4.46648C2.10604 5.24788 1.66705 6.30769 1.66705 7.41276V17.6544C1.66441 17.9363 1.74639 18.2124 1.90238 18.4471C2.05837 18.6818 2.2812 18.8644 2.54205 18.9711ZM3.33372 7.41276C3.33372 6.74972 3.59711 6.11383 4.06595 5.64499C4.53479 5.17615 5.17068 4.91276 5.83372 4.91276H14.1671C14.8301 4.91276 15.466 5.17615 15.9348 5.64499C16.4037 6.11383 16.6671 6.74972 16.6671 7.41276V12.4128C16.6671 13.0758 16.4037 13.7117 15.9348 14.1805C15.466 14.6494 14.8301 14.9128 14.1671 14.9128H5.83372C5.72405 14.9121 5.61533 14.9331 5.5138 14.9746C5.41227 15.0161 5.31992 15.0772 5.24205 15.1544L3.33372 17.0711V7.41276Z" fill="#464255"/>
</svg>
