<svg width="20" height="21" viewBox="0 0 20 21" fill="none" xmlns="http://www.w3.org/2000/svg">
<path d="M15.992 14.671C16.4247 14.1545 16.6634 13.5031 16.667 12.8294C16.667 12.0558 16.3597 11.314 15.8127 10.767C15.2657 10.22 14.5239 9.9127 13.7503 9.9127H13.517C14.2042 9.09603 14.5819 8.06339 14.5837 6.99604C14.5856 6.22649 14.3938 5.46885 14.0258 4.79297C13.6578 4.11709 13.1256 3.54474 12.4783 3.1287C11.8309 2.71265 11.0891 2.46631 10.3215 2.41239C9.55384 2.35847 8.78496 2.4987 8.08577 2.82016C7.38658 3.14162 6.77959 3.63395 6.32077 4.25175C5.86194 4.86956 5.56606 5.59294 5.46041 6.3552C5.35476 7.11746 5.44273 7.89405 5.71623 8.61336C5.98972 9.33266 6.43993 9.97153 7.02533 10.471C5.45055 11.0729 4.09535 12.1382 3.13867 13.5264C2.182 14.9145 1.66885 16.5602 1.66699 18.246C1.66699 18.467 1.75479 18.679 1.91107 18.8353C2.06735 18.9916 2.27931 19.0794 2.50033 19.0794C2.72134 19.0794 2.9333 18.9916 3.08958 18.8353C3.24586 18.679 3.33366 18.467 3.33366 18.246C3.33366 16.4779 4.03604 14.7822 5.28628 13.532C6.53652 12.2817 8.23222 11.5794 10.0003 11.5794H11.1253C10.8812 12.076 10.7875 12.6332 10.8556 13.1824C10.9237 13.7316 11.1507 14.249 11.5087 14.671C10.7987 15.0681 10.2075 15.6473 9.79589 16.3489C9.38429 17.0506 9.1672 17.8493 9.16699 18.6627C9.16699 18.8837 9.25479 19.0957 9.41107 19.252C9.56735 19.4082 9.77931 19.496 10.0003 19.496C10.2213 19.496 10.4333 19.4082 10.5896 19.252C10.7459 19.0957 10.8337 18.8837 10.8337 18.6627C10.8337 17.8892 11.141 17.1473 11.6879 16.6003C12.2349 16.0533 12.9768 15.746 13.7503 15.746C14.5239 15.746 15.2657 16.0533 15.8127 16.6003C16.3597 17.1473 16.667 17.8892 16.667 18.6627C16.667 18.8837 16.7548 19.0957 16.9111 19.252C17.0674 19.4082 17.2793 19.496 17.5003 19.496C17.7213 19.496 17.9333 19.4082 18.0896 19.252C18.2459 19.0957 18.3337 18.8837 18.3337 18.6627C18.3334 17.8493 18.1164 17.0506 17.7048 16.3489C17.2932 15.6473 16.7019 15.0681 15.992 14.671ZM10.0003 9.9127C9.42346 9.9127 8.85956 9.74164 8.37991 9.42115C7.90027 9.10067 7.52643 8.64515 7.30568 8.1122C7.08492 7.57924 7.02716 6.9928 7.1397 6.42702C7.25224 5.86124 7.53003 5.34154 7.93793 4.93364C8.34583 4.52574 8.86553 4.24795 9.43131 4.13541C9.99709 4.02287 10.5835 4.08063 11.1165 4.30139C11.6494 4.52214 12.105 4.89598 12.4254 5.37562C12.7459 5.85527 12.917 6.41917 12.917 6.99604C12.917 7.76958 12.6097 8.51145 12.0627 9.05843C11.5157 9.60541 10.7739 9.9127 10.0003 9.9127ZM13.7503 14.0794C13.4188 14.0794 13.1009 13.9477 12.8664 13.7133C12.632 13.4788 12.5003 13.1609 12.5003 12.8294C12.5025 12.4985 12.6349 12.1818 12.8689 11.9479C13.1028 11.7139 13.4195 11.5816 13.7503 11.5794C14.0818 11.5794 14.3998 11.7111 14.6342 11.9455C14.8686 12.1799 15.0003 12.4978 15.0003 12.8294C15.0003 13.1609 14.8686 13.4788 14.6342 13.7133C14.3998 13.9477 14.0818 14.0794 13.7503 14.0794Z" fill="#464255"/>
</svg>
