<svg width="20" height="21" viewBox="0 0 20 21" fill="none" xmlns="http://www.w3.org/2000/svg ">
<path d="M2.5 7.41244V17.4124C2.5 17.6335 2.5878 17.8454 2.74408 18.0017C2.90036 18.158 3.11232 18.2458 3.33333 18.2458H7.5C7.72101 18.2458 7.93297 18.158 8.08925 18.0017C8.24554 17.8454 8.33333 17.6335 8.33333 17.4124V11.5791H11.6667V17.4124C11.6667 17.6335 11.7545 17.8454 11.9107 18.0017C12.067 18.158 12.279 18.2458 12.5 18.2458H16.6667C16.8877 18.2458 17.0996 18.158 17.2559 18.0017C17.4122 17.8454 17.5 17.6335 17.5 17.4124V7.41244C17.5 7.28306 17.4699 7.15547 17.412 7.03976C17.3542 6.92405 17.2702 6.82339 17.1667 6.74577L10.5 1.74577C10.3558 1.63758 10.1803 1.5791 10 1.5791C9.81969 1.5791 9.64425 1.63758 9.5 1.74577L2.83333 6.74577C2.72984 6.82339 2.64583 6.92405 2.58798 7.03976C2.53012 7.15547 2.5 7.28306 2.5 7.41244ZM4.16667 7.8291L10 3.4541L15.8333 7.8291V16.5791H13.3333V10.7458C13.3333 10.5248 13.2455 10.3128 13.0893 10.1565C12.933 10.0002 12.721 9.91244 12.5 9.91244H7.5C7.27899 9.91244 7.06702 10.0002 6.91074 10.1565C6.75446 10.3128 6.66667 10.5248 6.66667 10.7458V16.5791H4.16667V7.8291Z" fill="#464255"/>
</svg>
