<svg width="27" height="28" viewBox="0 0 27 28" fill="none" xmlns="http://www.w3.org/2000/svg">
<path d="M18.9844 23.9492H8.4375C8.38209 23.9492 8.32723 23.9383 8.27604 23.9171C8.22485 23.8959 8.17833 23.8649 8.13916 23.8257C8.09998 23.7865 8.06891 23.74 8.04771 23.6888C8.02651 23.6376 8.01561 23.5827 8.01563 23.5273V7.49609C8.01561 7.44069 8.02651 7.38582 8.04771 7.33463C8.06891 7.28344 8.09998 7.23693 8.13916 7.19775C8.17833 7.15857 8.22485 7.1275 8.27604 7.1063C8.32723 7.08511 8.38209 7.0742 8.4375 7.07422H18.9844C19.4318 7.0747 19.8607 7.25264 20.1771 7.569C20.4935 7.88537 20.6714 8.31431 20.6719 8.76172V22.2617C20.6714 22.7091 20.4935 23.1381 20.1771 23.4544C19.8607 23.7708 19.4318 23.9487 18.9844 23.9492ZM8.85938 23.1055H18.9844C19.2081 23.1052 19.4225 23.0162 19.5807 22.8581C19.7389 22.6999 19.8279 22.4854 19.8281 22.2617V8.76172C19.8279 8.53802 19.7389 8.32356 19.5807 8.16538C19.4225 8.0072 19.2081 7.91822 18.9844 7.91797H8.85938V23.1055Z" fill="#464255" stroke="#464255"/>
<path d="M6.41211 7.46526C6.31324 7.46518 6.21753 7.43038 6.14169 7.36694C6.06584 7.3035 6.01468 7.21545 5.99712 7.11815C5.97956 7.02084 5.99672 6.92046 6.04561 6.83452C6.0945 6.74857 6.17201 6.68252 6.26462 6.64788L12.5965 4.28412C12.8511 4.19355 13.1237 4.16545 13.3914 4.20219C13.6592 4.23893 13.9142 4.33942 14.135 4.49523C14.3558 4.65103 14.5359 4.85758 14.6603 5.09751C14.7847 5.33744 14.8496 5.60372 14.8496 5.87396V7.04318C14.8496 7.15507 14.8052 7.26238 14.726 7.34149C14.6469 7.42061 14.5396 7.46506 14.4277 7.46506C14.3158 7.46506 14.2085 7.42061 14.1294 7.34149C14.0503 7.26238 14.0059 7.15507 14.0059 7.04318V5.87396C14.0058 5.7392 13.9735 5.60641 13.9116 5.48669C13.8498 5.36698 13.7601 5.26382 13.6502 5.18585C13.5403 5.10788 13.4133 5.05737 13.2798 5.03853C13.1464 5.0197 13.0104 5.03309 12.8832 5.07759L6.5596 7.43848C6.51243 7.45615 6.46248 7.46522 6.41211 7.46526ZM7.25586 12.1057H4.93555C4.54385 12.1052 4.16821 11.95 3.89034 11.6739C3.68416 11.4671 3.54385 11.2039 3.48713 10.9175C3.43041 10.631 3.45982 10.3342 3.57164 10.0645C3.68346 9.79474 3.87268 9.56417 4.11542 9.40187C4.35817 9.23957 4.64355 9.15281 4.93555 9.15256H5.99024C6.10212 9.15256 6.20943 9.197 6.28855 9.27612C6.36766 9.35524 6.41211 9.46254 6.41211 9.57443C6.41211 9.68632 6.36766 9.79363 6.28855 9.87274C6.20943 9.95186 6.10212 9.99631 5.99024 9.99631H4.93555C4.76772 9.99631 4.60676 10.063 4.48808 10.1817C4.36941 10.3003 4.30274 10.4613 4.30274 10.6291C4.30274 10.797 4.36941 10.9579 4.48808 11.0766C4.60676 11.1953 4.76772 11.2619 4.93555 11.2619H7.25586C7.36775 11.2619 7.47506 11.3064 7.55417 11.3855C7.63329 11.4646 7.67774 11.5719 7.67774 11.6838C7.67774 11.7957 7.63329 11.903 7.55417 11.9821C7.47506 12.0612 7.36775 12.1057 7.25586 12.1057ZM7.25586 16.3244H4.93555C4.54385 16.3239 4.16821 16.1687 3.89034 15.8927C3.68416 15.6859 3.54385 15.4227 3.48713 15.1362C3.43041 14.8498 3.45982 14.553 3.57164 14.2832C3.68346 14.0135 3.87268 13.7829 4.11542 13.6206C4.35817 13.4583 4.64355 13.3716 4.93555 13.3713H5.99024C6.10212 13.3713 6.20943 13.4158 6.28855 13.4949C6.36766 13.574 6.41211 13.6813 6.41211 13.7932C6.41211 13.9051 6.36766 14.0124 6.28855 14.0915C6.20943 14.1706 6.10212 14.2151 5.99024 14.2151H4.93555C4.76772 14.2151 4.60676 14.2817 4.48808 14.4004C4.36941 14.5191 4.30274 14.68 4.30274 14.8479C4.30274 15.0157 4.36941 15.1767 4.48808 15.2953C4.60676 15.414 4.76772 15.4807 4.93555 15.4807H7.25586C7.36775 15.4807 7.47506 15.5251 7.55417 15.6042C7.63329 15.6834 7.67774 15.7907 7.67774 15.9026C7.67774 16.0144 7.63329 16.1218 7.55417 16.2009C7.47506 16.28 7.36775 16.3244 7.25586 16.3244ZM7.25586 20.5432H4.93555C4.54385 20.5427 4.16821 20.3875 3.89034 20.1114C3.68416 19.9046 3.54385 19.6414 3.48713 19.355C3.43041 19.0685 3.45982 18.7717 3.57164 18.502C3.68346 18.2322 3.87268 18.0017 4.11542 17.8394C4.35817 17.6771 4.64355 17.5903 4.93555 17.5901H5.99024C6.10212 17.5901 6.20943 17.6345 6.28855 17.7136C6.36766 17.7927 6.41211 17.9 6.41211 18.0119C6.41211 18.1238 6.36766 18.2311 6.28855 18.3102C6.20943 18.3894 6.10212 18.4338 5.99024 18.4338H4.93555C4.76772 18.4338 4.60676 18.5005 4.48808 18.6192C4.36941 18.7378 4.30274 18.8988 4.30274 19.0666C4.30274 19.2345 4.36941 19.3954 4.48808 19.5141C4.60676 19.6328 4.76772 19.6994 4.93555 19.6994H7.25586C7.36775 19.6994 7.47506 19.7439 7.55417 19.823C7.63329 19.9021 7.67774 20.0094 7.67774 20.1213C7.67774 20.2332 7.63329 20.3405 7.55417 20.4196C7.47506 20.4987 7.36775 20.5432 7.25586 20.5432ZM17.8027 14.6369H11.0527C10.9973 14.6369 10.9425 14.626 10.8913 14.6048C10.8401 14.5837 10.7936 14.5526 10.7544 14.5134C10.7152 14.4742 10.6841 14.4277 10.6629 14.3765C10.6417 14.3253 10.6308 14.2705 10.6309 14.2151V13.3713C10.6309 12.3643 11.0309 11.3986 11.7429 10.6865C12.455 9.97446 13.4207 9.57443 14.4277 9.57443C15.4347 9.57443 16.4005 9.97446 17.1125 10.6865C17.8246 11.3986 18.2246 12.3643 18.2246 13.3713V14.2151C18.2246 14.2705 18.2137 14.3253 18.1925 14.3765C18.1713 14.4277 18.1403 14.4742 18.1011 14.5134C18.0619 14.5526 18.0154 14.5837 17.9642 14.6048C17.913 14.626 17.8581 14.6369 17.8027 14.6369ZM11.4746 13.7932H17.3809V13.3713C17.3809 12.5881 17.0697 11.8369 16.5159 11.2831C15.9621 10.7293 15.211 10.4182 14.4277 10.4182C13.6445 10.4182 12.8934 10.7293 12.3396 11.2831C11.7857 11.8369 11.4746 12.5881 11.4746 13.3713V13.7932Z" fill="#464255" stroke="#464255"/>
</svg>
