<svg width="20" height="21" viewBox="0 0 20 21" fill="none" xmlns="http://www.w3.org/2000/svg">
<path d="M17.5003 4.91276H2.50033C2.0281 4.91276 1.66699 4.55165 1.66699 4.07943C1.66699 3.6072 2.0281 3.24609 2.50033 3.24609H17.5003C17.9725 3.24609 18.3337 3.6072 18.3337 4.07943C18.3337 4.55165 17.9725 4.91276 17.5003 4.91276Z" fill="#464255"/>
<path d="M12.5003 9.3571H2.50033C2.0281 9.3571 1.66699 8.99598 1.66699 8.52376C1.66699 8.05154 2.0281 7.69043 2.50033 7.69043H12.5003C12.9725 7.69043 13.3337 8.05154 13.3337 8.52376C13.3337 8.99598 12.9725 9.3571 12.5003 9.3571Z" fill="#464255"/>
<path d="M17.5003 13.8017H2.50033C2.0281 13.8017 1.66699 13.4406 1.66699 12.9683C1.66699 12.4961 2.0281 12.135 2.50033 12.135H17.5003C17.9725 12.135 18.3337 12.4961 18.3337 12.9683C18.3337 13.4406 17.9725 13.8017 17.5003 13.8017Z" fill="#464255"/>
<path d="M12.5003 18.246H2.50033C2.0281 18.246 1.66699 17.8849 1.66699 17.4127C1.66699 16.9405 2.0281 16.5793 2.50033 16.5793H12.5003C12.9725 16.5793 13.3337 16.9405 13.3337 17.4127C13.3337 17.8849 12.9725 18.246 12.5003 18.246Z" fill="#464255"/>
</svg>
