<svg width="75" height="75" viewBox="0 0 75 75" fill="none" xmlns="http://www.w3.org/2000/svg">
<ellipse cx="37.155" cy="37.4587" rx="37.155" ry="37.4587" fill="#FE8C00" fill-opacity="0.15"/>
<path d="M16.4385 56.6505C19.2297 56.6505 21.5103 54.3484 21.5103 51.5309V18.5452H51.1246V51.5309C51.1246 54.3484 48.8439 56.6505 46.0527 56.6505" fill="#FE8C00" fill-opacity="0.6"/>
<path d="M40.9814 51.5306V47.6479H11.3672V51.5306C11.3672 54.3482 13.6478 56.6503 16.4391 56.6503H46.0533C43.262 56.6503 40.9814 54.3482 40.9814 51.5306Z" fill="#FE8C00"/>
<path d="M30.5997 25.1077H26.8213V26.757H30.5997V25.1077Z" fill="#F7C604"/>
<path d="M45.1338 25.1077H33.5264V26.757H45.1338V25.1077Z" fill="#F3F2F7"/>
<path d="M30.5997 30.949H26.8213V32.5983H30.5997V30.949Z" fill="#F7C604"/>
<path d="M45.1338 30.949H33.5264V32.5983H45.1338V30.949Z" fill="#F3F2F7"/>
<path d="M30.5997 36.7903H26.8213V38.4396H30.5997V36.7903Z" fill="#F7C604"/>
<path d="M45.1338 36.7903H33.5264V38.4396H45.1338V36.7903Z" fill="#F3F2F7"/>
<path d="M30.5997 42.6316H26.8213V44.2809H30.5997V42.6316Z" fill="#F7C604"/>
<path d="M45.1338 42.6316H33.5264V44.2809H45.1338V42.6316Z" fill="#F3F2F7"/>
<path opacity="0.1" d="M51.1251 42.9065V23.2869C50.7167 23.2182 50.2742 23.1838 49.8316 23.1838C44.4194 23.1838 40.0283 27.6163 40.0283 33.0795C40.0283 38.5428 44.4194 42.9753 49.8316 42.9753C50.2742 43.0096 50.7167 42.9753 51.1251 42.9065Z" fill="#0C1E5B"/>
<path d="M53.2702 41.017C58.6845 41.017 63.0737 36.5865 63.0737 31.1212C63.0737 25.6558 58.6845 21.2253 53.2702 21.2253C47.8559 21.2253 43.4668 25.6558 43.4668 31.1212C43.4668 36.5865 47.8559 41.017 53.2702 41.017Z" fill="#FF5B5B"/>
<path d="M57.1188 27.0854L49.1162 35.1535M49.1162 27.0854L57.1188 35.1535" stroke="white" stroke-width="4"/>
<path d="M57.1188 27.0854L49.1162 35.1535M49.1162 27.0854L57.1188 35.1535" stroke="white" stroke-width="4"/>
</svg>
