<svg width="75" height="75" viewBox="0 0 75 75" fill="none" xmlns="http://www.w3.org/2000/svg">
<ellipse cx="37.155" cy="37.4587" rx="37.155" ry="37.4587" fill="#FE8C00" fill-opacity="0.15"/>
<path d="M40.2892 21.1114C39.766 21.1114 39.3548 20.6969 39.3548 20.1693V17.7952C39.3548 15.2327 37.299 13.1601 34.7946 13.1601C33.5611 13.1601 32.4398 13.65 31.5427 14.5167C30.6456 15.3834 30.1971 16.5516 30.1971 17.7952V20.1693C30.1971 20.6969 29.7859 21.1114 29.2626 21.1114C28.7393 21.1114 28.3281 20.6969 28.3281 20.1693V17.7952C28.3281 16.0618 29.0009 14.4413 30.1971 13.1978C31.4305 11.9542 33.0378 11.2759 34.7572 11.2759C38.3082 11.2759 41.1863 14.1776 41.1863 17.7575V20.1316C41.2237 20.6969 40.8125 21.1114 40.2892 21.1114Z" fill="#FFD497"/>
<path d="M54.9807 52.879H27.7318L23.209 17.6821H53.0744L54.9807 52.879Z" fill="#FE8C00" fill-opacity="0.6"/>
<path d="M27.7301 52.879L21.2636 51.7485L14.7598 52.879L16.7035 17.6821H25.7864L27.7301 52.879Z" fill="#FE8C00"/>
<path d="M39.5795 29.8163C36.0285 29.8163 33.1504 26.9146 33.1504 23.3346V20.9605C33.1504 20.4329 33.5616 20.0184 34.0849 20.0184C34.6082 20.0184 35.0193 20.4329 35.0193 20.9605V23.3346C35.0193 25.8971 37.0751 27.932 39.5795 27.932C42.0839 27.932 44.1771 25.8594 44.1771 23.2969V20.9228C44.1771 20.3952 44.5882 19.9807 45.1115 19.9807C45.6348 19.9807 46.046 20.3952 46.046 20.9228V23.2969C46.046 26.9146 43.1678 29.8163 39.5795 29.8163Z" fill="white"/>
<path opacity="0.1" d="M41.2617 48.0554C41.2617 49.7889 41.7103 51.4469 42.4952 52.8789H55.017L54.2321 38.4083C53.2976 38.1068 52.3257 37.9561 51.3165 37.9561C45.7471 37.9561 41.2617 42.4781 41.2617 48.0554Z" fill="#0C1E5B"/>
<path d="M56.5126 58.1547C62.045 58.1547 66.53 53.6331 66.53 48.0554C66.53 42.4777 62.045 37.9561 56.5126 37.9561C50.9801 37.9561 46.4951 42.4777 46.4951 48.0554C46.4951 53.6331 50.9801 58.1547 56.5126 58.1547Z" fill="#FF6966"/>
<path d="M55.4655 51.9746C55.1665 51.9746 54.9048 51.8616 54.6806 51.6355L51.5034 48.4323C51.0549 47.9801 51.0549 47.2641 51.5034 46.8496C51.9519 46.3974 52.6621 46.3974 53.0733 46.8496L55.4655 49.2614L59.951 44.7393C60.3995 44.2871 61.1097 44.2871 61.5209 44.7393C61.9694 45.1915 61.9694 45.9075 61.5209 46.322L56.2505 51.6355C56.0262 51.8616 55.7272 51.9746 55.4655 51.9746Z" fill="white"/>
</svg>
