<svg width="20" height="21" viewBox="0 0 20 21" fill="none" xmlns="http://www.w3.org/2000/svg">
<path d="M2.50034 19.0795H5.83367C5.94335 19.0802 6.05206 19.0592 6.15359 19.0177C6.25513 18.9762 6.34747 18.9151 6.42534 18.8379L16.4253 8.83787C16.5034 8.7604 16.5654 8.66824 16.6078 8.56669C16.6501 8.46514 16.6718 8.35622 16.6718 8.24621C16.6718 8.1362 16.6501 8.02728 16.6078 7.92573C16.5654 7.82418 16.5034 7.73201 16.4253 7.65454L13.092 4.32121C13.0145 4.2431 12.9224 4.1811 12.8208 4.1388C12.7193 4.09649 12.6104 4.07471 12.5003 4.07471C12.3903 4.07471 12.2814 4.09649 12.1799 4.1388C12.0783 4.1811 11.9861 4.2431 11.9087 4.32121L1.90867 14.3212C1.83144 14.3991 1.77033 14.4914 1.72886 14.593C1.68739 14.6945 1.66637 14.8032 1.66701 14.9129V18.2462C1.66701 18.4672 1.7548 18.6792 1.91108 18.8355C2.06736 18.9917 2.27933 19.0795 2.50034 19.0795ZM3.33367 15.2545L12.5003 6.08787L14.6587 8.24621L5.49201 17.4129H3.33367V15.2545Z" fill="#464255"/>
<path d="M14.7585 2.65438C14.6808 2.57668 14.5885 2.51505 14.487 2.473C14.3855 2.43094 14.2767 2.4093 14.1668 2.4093C13.9449 2.4093 13.7321 2.49746 13.5752 2.65438C13.4182 2.8113 13.3301 3.02413 13.3301 3.24605C13.3301 3.46796 13.4182 3.68079 13.5752 3.83771L16.9085 7.17105C16.986 7.24915 17.0781 7.31115 17.1797 7.35346C17.2812 7.39576 17.3901 7.41755 17.5002 7.41755C17.6102 7.41755 17.7191 7.39576 17.8206 7.35346C17.9222 7.31115 18.0143 7.24915 18.0918 7.17105C18.1699 7.09358 18.2319 7.00141 18.2742 6.89986C18.3165 6.79831 18.3383 6.68939 18.3383 6.57938C18.3383 6.46937 18.3165 6.36045 18.2742 6.2589C18.2319 6.15735 18.1699 6.06518 18.0918 5.98771L14.7585 2.65438Z" fill="#464255"/>
</svg>
