<svg width="20" height="21" viewBox="0 0 20 21" fill="none" xmlns="http://www.w3.org/2000/svg">
<path d="M16.8749 7.62109H16.0031L16.1093 6.55728C16.1353 6.29665 16.1064 6.03346 16.0245 5.78467C15.9426 5.53589 15.8095 5.30702 15.6337 5.11283C15.4579 4.91864 15.2434 4.76343 15.004 4.65721C14.7646 4.55098 14.5056 4.4961 14.2436 4.49609H4.50612C4.24414 4.49611 3.98507 4.55103 3.74561 4.65729C3.50615 4.76355 3.29161 4.91881 3.11582 5.11306C2.94003 5.3073 2.80689 5.53622 2.72498 5.78507C2.64307 6.03391 2.6142 6.29716 2.64025 6.55784L3.49618 16.118C3.51297 16.2679 3.48006 15.9569 3.5998 16.5568H1.73043C1.56467 16.5568 1.4057 16.6226 1.28849 16.7398C1.17128 16.857 1.10543 17.016 1.10543 17.1818C1.10543 17.3475 1.17128 17.5065 1.28849 17.6237C1.4057 17.7409 1.56467 17.8068 1.73043 17.8068L16.9999 17.9961C17.1656 17.9961 17.3246 17.9302 17.4418 17.813C17.559 17.6958 17.6249 17.5369 17.6249 17.3711C17.6249 17.2053 17.559 17.0464 17.4418 16.9292C17.3246 16.8119 17.1656 16.7461 16.9999 16.7461H15.1306C15.1826 16.6047 15.2173 16.4576 15.2341 16.3078L15.4404 13.2461H16.8749C17.372 13.2455 17.8486 13.0478 18.2001 12.6963C18.5516 12.3448 18.7493 11.8682 18.7499 11.3711V9.49609C18.7493 8.99898 18.5516 8.52238 18.2001 8.17087C17.8486 7.81936 17.372 7.62164 16.8749 7.62109ZM5.66116 16.5568C5.50612 16.5573 5.35648 16.4999 5.24154 16.3958C5.12661 16.2918 5.05466 16.1486 5.03978 15.9943L4.13771 6.58592C4.12901 6.49898 4.13861 6.41119 4.16591 6.3282C4.1932 6.2452 4.23757 6.16884 4.29617 6.10404C4.35476 6.03924 4.42628 5.98743 4.50612 5.95195C4.58596 5.91647 4.67235 5.8981 4.75971 5.89804L14.0203 5.95195C14.1076 5.952 14.194 5.97035 14.2738 6.00581C14.3536 6.04126 14.4251 6.09304 14.4837 6.1578C14.5423 6.22256 14.5867 6.29888 14.614 6.38183C14.6413 6.46479 14.6509 6.55254 14.6423 6.63945L14.0203 15.9949C14.0053 16.1492 13.9332 16.2923 13.8183 16.3962C13.7033 16.5001 13.5536 16.5574 13.3987 16.5568H5.66116ZM17.4999 11.3711C17.4998 11.5368 17.4339 11.6957 17.3167 11.8129C17.1995 11.9301 17.0406 11.996 16.8749 11.9961H15.5654L15.8779 8.87109H16.8749C17.0406 8.87119 17.1995 8.93707 17.3167 9.05426C17.4339 9.17145 17.4998 9.33036 17.4999 9.49609V11.3711Z" fill="#464255"/>
</svg>
